<?xml version="1.0" encoding="utf-8"?>
<!-- Generator: Adobe Illustrator 21.1.0, SVG Export Plug-In . SVG Version: 6.00 Build 0)  -->
<svg version="1.1" id="Layer_1" xmlns="http://www.w3.org/2000/svg" xmlns:xlink="http://www.w3.org/1999/xlink" x="0px" y="0px"
	 viewBox="0 0 400 400" style="enable-background:new 0 0 400 400;" xml:space="preserve">
<style type="text/css">
	.st0{fill:none;stroke:#000000;stroke-width:10;stroke-miterlimit:10;}
	.st1{stroke:#000000;stroke-miterlimit:10;}
</style>
<title>Artboard 66 copy 4</title>
<g>
	<path class="st0" d="M231.9,136c-6.6,0-12-5.4-12-12V71.2h-106c-6.6,0-12,5.4-12,12v239c0,6.6,5.4,12,12,12h167c6.6,0,12-5.4,12-12
		V136H231.9z"/>
</g>
<path class="st1" d="M226.3,68l69.2,60.1c2.4,2.1,2.7,5.7,0.6,8.1l-0.1,0.1c-2.1,2.4-5.7,2.7-8.1,0.6l-69.2-60.1
	c-2.4-2.1-2.7-5.7-0.6-8.1l0.1-0.1C220.3,66.1,223.9,65.9,226.3,68z"/>
</svg>
